<svg width="192" height="192" viewBox="0 0 192 192" xmlns="http://www.w3.org/2000/svg">
  <defs>
    <linearGradient id="bg" x1="0%" y1="0%" x2="100%" y2="100%">
      <stop offset="0%" style="stop-color:#f4c7d7"/>
      <stop offset="100%" style="stop-color:#e89bb5"/>
    </linearGradient>
  </defs>
  
  <!-- Background circle -->
  <circle cx="96" cy="96" r="90" fill="url(#bg)" stroke="#d4a574" stroke-width="4"/>
  
  <!-- Wheat stalks -->
  <g transform="translate(96,96)">
    <!-- Left wheat stalk -->
    <g transform="translate(-25,-10) rotate(-15)">
      <line x1="0" y1="30" x2="0" y2="-30" stroke="#d4a574" stroke-width="3"/>
      <ellipse cx="-3" cy="-25" rx="2" ry="4" fill="#f4d03f"/>
      <ellipse cx="3" cy="-20" rx="2" ry="4" fill="#f4d03f"/>
      <ellipse cx="-3" cy="-15" rx="2" ry="4" fill="#f4d03f"/>
      <ellipse cx="3" cy="-10" rx="2" ry="4" fill="#f4d03f"/>
      <ellipse cx="-3" cy="-5" rx="2" ry="4" fill="#f4d03f"/>
      <ellipse cx="3" cy="0" rx="2" ry="4" fill="#f4d03f"/>
    </g>
    
    <!-- Center wheat stalk -->
    <g transform="translate(0,-15)">
      <line x1="0" y1="35" x2="0" y2="-35" stroke="#d4a574" stroke-width="3"/>
      <ellipse cx="-3" cy="-30" rx="2" ry="4" fill="#f4d03f"/>
      <ellipse cx="3" cy="-25" rx="2" ry="4" fill="#f4d03f"/>
      <ellipse cx="-3" cy="-20" rx="2" ry="4" fill="#f4d03f"/>
      <ellipse cx="3" cy="-15" rx="2" ry="4" fill="#f4d03f"/>
      <ellipse cx="-3" cy="-10" rx="2" ry="4" fill="#f4d03f"/>
      <ellipse cx="3" cy="-5" rx="2" ry="4" fill="#f4d03f"/>
      <ellipse cx="-3" cy="0" rx="2" ry="4" fill="#f4d03f"/>
    </g>
    
    <!-- Right wheat stalk -->
    <g transform="translate(25,-10) rotate(15)">
      <line x1="0" y1="30" x2="0" y2="-30" stroke="#d4a574" stroke-width="3"/>
      <ellipse cx="-3" cy="-25" rx="2" ry="4" fill="#f4d03f"/>
      <ellipse cx="3" cy="-20" rx="2" ry="4" fill="#f4d03f"/>
      <ellipse cx="-3" cy="-15" rx="2" ry="4" fill="#f4d03f"/>
      <ellipse cx="3" cy="-10" rx="2" ry="4" fill="#f4d03f"/>
      <ellipse cx="-3" cy="-5" rx="2" ry="4" fill="#f4d03f"/>
      <ellipse cx="3" cy="0" rx="2" ry="4" fill="#f4d03f"/>
    </g>
  </g>
  
  <!-- MAXWIL text -->
  <text x="96" y="150" text-anchor="middle" font-family="Arial, sans-serif" font-size="16" font-weight="bold" fill="#8b4513">MAXWIL</text>
</svg>